<?xml version="1.0" encoding="utf-8"?>
<!-- Generator: Adobe Illustrator 25.2.3, SVG Export Plug-In . SVG Version: 6.00 Build 0)  -->
<svg version="1.1" id="Layer_1" xmlns="http://www.w3.org/2000/svg" xmlns:xlink="http://www.w3.org/1999/xlink" x="0px" y="0px"
	 viewBox="0 0 89 45" enable-background="new 0 0 89 45" xml:space="preserve">
<path fill="#EF4050" d="M7.4,14.9h14.9v7.4H7.4V14.9z"/>
<path fill="#EF4050" d="M0,22.3h7.4v22.3H0V22.3z"/>
<path fill="#EF4050" d="M72.9,14.9h14.9v7.4H72.9V14.9z"/>
<path fill="#EF4050" d="M65.5,22.3h7.4v22.3h-7.4V22.3z"/>
<path fill="#EF4050" d="M28.3,0v22.3l7.4-7.4V0H28.3z"/>
<path fill="#EF4050" d="M35.8,14.9h14.9v7.4H35.8V14.9z"/>
<path fill="#EF4050" d="M50.6,22.3H58v22.3h-7.4V22.3z"/>
<path fill="#EF4050" d="M28.4,22.3h7.4v22.3h-7.4V22.3z"/>
<path fill="#A1284B" d="M0,22.3h7.4v-7.4L0,22.3z"/>
<path fill="#A1284B" d="M65.5,22.3h7.4v-7.4L65.5,22.3z"/>
<path fill="#A1284B" d="M35.8,14.9v7.4h-7.4L35.8,14.9z"/>
<path fill="#A1284B" d="M58.1,22.3h-7.4v-7.4L58.1,22.3z"/>
</svg>
