<svg width="88" height="45" viewBox="0 0 88 45" fill="none" xmlns="http://www.w3.org/2000/svg">
<path fill-rule="evenodd" clip-rule="evenodd" d="M7.00054 22.7322V45H0V22.7322H7.00054ZM57.853 22.7322V45H50.8541V22.7322H57.853ZM35.4704 22.7322V45H28.4695V22.7322H35.4704ZM72.7786 22.7322V45H65.7781V22.7322H72.7786ZM21.9258 15.1561V22.2622H7.46342V15.1561H21.9258ZM7.00054 15.1614V22.2622H0L7.00054 15.1614ZM50.854 15.1756L57.773 22.2623H50.854V15.1756ZM50.39 15.1561V22.2622H35.9333V15.1561H50.39ZM35.4697 15.4882V22.2623H28.7958L35.4697 15.4882ZM87.7039 15.1561V22.2622H73.2415V15.1561H87.7039ZM72.7785 15.1616V22.2623H65.7784L72.7785 15.1616ZM35.4699 0V14.8231L28.469 21.9296V0H35.4699Z" fill="white"/>
</svg>
