<svg width="151" height="28" viewBox="0 0 151 28" fill="none" xmlns="http://www.w3.org/2000/svg">
<path d="M48.0619 25.668L49.7201 20.499H57.782L59.4402 25.668H64.502L56.8001 3H50.7128L43 25.668H48.0619ZM50.9201 16.7579L53.6692 8.17998H53.8437L56.5929 16.7579H50.9201Z" fill="black"/>
<path d="M80.0114 8.66699H75.0914L71.6223 20.8311H71.4477L67.9677 8.66699H63.0585L68.9168 25.668H74.1532L80.0114 8.66699Z" fill="black"/>
<path d="M88.7762 26C93.8599 26 97.0236 22.4692 97.0236 17.2339C97.0236 11.9654 93.8599 8.44562 88.7762 8.44562C83.6925 8.44562 80.5289 11.9654 80.5289 17.2339C80.5289 22.4692 83.6925 26 88.7762 26ZM88.798 22.3474C86.4526 22.3474 85.2525 20.167 85.2525 17.2007C85.2525 14.2344 86.4526 12.0428 88.798 12.0428C91.0999 12.0428 92.2999 14.2344 92.2999 17.2007C92.2999 20.167 91.0999 22.3474 88.798 22.3474Z" fill="black"/>
<path d="M104.078 15.8393C104.089 13.6477 105.377 12.3638 107.253 12.3638C109.118 12.3638 110.242 13.6035 110.231 15.6843V25.668H114.878V14.8431C114.878 10.8807 112.588 8.44562 109.097 8.44562C106.609 8.44562 104.809 9.68527 104.057 11.6665H103.86V8.66699H99.431V25.668H104.078V15.8393Z" fill="black"/>
<path d="M125.563 26C129.709 26 132.501 23.9524 133.156 20.7979L128.858 20.5101C128.389 21.8051 127.189 22.4803 125.64 22.4803C123.316 22.4803 121.843 20.9196 121.843 18.385V18.3739H133.254V17.0789C133.254 11.3013 129.807 8.44562 125.378 8.44562C120.447 8.44562 117.25 11.9986 117.25 17.2449C117.25 22.6352 120.403 26 125.563 26ZM121.843 15.4519C121.941 13.5149 123.392 11.9654 125.454 11.9654C127.472 11.9654 128.869 13.4264 128.88 15.4519H121.843Z" fill="black"/>
<path d="M143.309 26C147.455 26 150.247 23.9524 150.902 20.7979L146.604 20.5101C146.135 21.8051 144.934 22.4803 143.385 22.4803C141.062 22.4803 139.589 20.9196 139.589 18.385V18.3739H151V17.0789C151 11.3013 147.553 8.44562 143.124 8.44562C138.193 8.44562 134.996 11.9986 134.996 17.2449C134.996 22.6352 138.149 26 143.309 26ZM139.589 15.4519C139.687 13.5149 141.138 11.9654 143.2 11.9654C145.218 11.9654 146.615 13.4264 146.625 15.4519H139.589Z" fill="black"/>
<path d="M14.0703 2.41602L14.8436 2.93155L14.0703 2.41602Z" fill="#FF5757"/>
<path d="M21.6421 2.77048V2.8027L21.9321 2.60938L21.6421 2.77048Z" fill="#FF5757"/>
<path d="M36.0129 23.0058L31.4375 16.0782L27.1521 9.60184L23.2212 3.64097L22.3512 2.38435L21.9001 1.73993C21.449 1.19217 20.869 0.773301 20.2568 0.451091C19.6446 0.161103 18.9358 0 18.2269 0C16.9381 0 15.7137 0.515535 14.7793 1.44994C14.6826 1.54661 14.5537 1.67549 14.4893 1.80437L14.0382 2.44879L14.8437 2.96433L14.0382 2.44879L13.9415 2.57768L9.46281 9.37629L0.537611 22.9735C-0.139029 23.9724 -0.17125 25.2612 0.408727 26.3245C0.956483 27.3556 1.98755 28 3.14751 28H12.3627C14.1671 28 15.8748 27.0978 16.9059 25.5512L18.3236 23.4246L19.7735 25.6157C20.7401 27.0978 22.3512 27.9678 24.0911 27.9678H33.4674C34.6274 27.9678 35.6262 27.3556 36.2062 26.3245C36.754 25.2612 36.6895 23.9724 36.0129 23.0058ZM21.6423 2.771L21.9323 2.57768L21.6423 2.771ZM17.5503 22.2969L15.8426 24.8423C15.037 26.0345 13.716 26.7434 12.3305 26.7434H3.11529C2.40643 26.7434 1.79423 26.3567 1.47202 25.7445C1.11759 25.0679 1.14981 24.2946 1.56868 23.6824L10.5261 10.0529L15.1015 3.09321L15.2304 2.89989C15.327 2.73878 15.4237 2.6099 15.5526 2.48101C16.2292 1.67549 17.2281 1.19217 18.2914 1.19217C18.8069 1.19217 19.2902 1.28884 19.7413 1.51438L21.4168 2.99655L21.4812 2.96433L21.4168 3.02877L21.4812 3.12543L26.2177 10.2785L28.0221 13.0173C27.6032 12.8884 27.1521 12.8239 26.701 12.8239C25.0255 12.8239 23.4467 13.6939 22.5123 15.1116L17.5503 22.2969ZM35.0785 25.7123C34.7563 26.3245 34.1441 26.7112 33.4352 26.7112H24.0911C22.7701 26.7112 21.5457 26.0345 20.8046 24.9068L19.0647 22.2647L20.9657 19.4614L21.0946 19.2681L23.5111 15.7238V15.6916C24.22 14.6283 25.38 14.0161 26.6366 14.0161C27.3777 14.0161 28.1187 14.2417 28.7309 14.6605C28.7309 14.6605 28.7632 14.6605 28.7632 14.6927C28.7954 14.725 28.8276 14.725 28.8276 14.7572C28.8598 14.7572 28.8598 14.7894 28.892 14.7894L28.9243 14.8216C28.9565 14.8216 28.9565 14.8539 28.9887 14.8861L29.0209 14.9183C29.0531 14.9505 29.0531 14.9505 29.0854 14.9827C29.0854 14.9827 29.0854 14.9827 29.1176 15.015C29.1176 15.015 29.1498 15.015 29.1498 15.0472C29.1498 15.0472 29.1498 15.0472 29.182 15.0472C29.182 15.0472 29.182 15.0472 29.2143 15.0794C29.2143 15.0794 29.2143 15.0794 29.2465 15.1116C29.2787 15.1438 29.3109 15.1761 29.3109 15.1761L29.3431 15.2083L29.3754 15.2405C29.4076 15.2727 29.4398 15.3049 29.472 15.3372C29.5042 15.3694 29.5365 15.4016 29.5365 15.4338L29.5687 15.4661L29.6009 15.4983C29.6653 15.5949 29.762 15.6916 29.8264 15.7883L29.8909 15.8527L30.2775 16.4327L35.0462 23.6502C35.4007 24.2946 35.4329 25.0679 35.0785 25.7123Z" fill="#FF5757"/>
</svg>
