<svg width="153" height="30" viewBox="0 0 153 30" fill="none" xmlns="http://www.w3.org/2000/svg">
<path d="M50.0589 28.668L51.7171 23.499H59.779L61.4372 28.668H66.4991L58.7972 6H52.7099L44.9971 28.668H50.0589ZM52.9172 19.7579L55.6663 11.18H55.8408L58.5899 19.7579H52.9172Z" fill="white"/>
<path d="M82.0085 11.667H77.0885L73.6193 23.8311H73.4448L69.9647 11.667H65.0556L70.9138 28.668H76.1503L82.0085 11.667Z" fill="white"/>
<path d="M90.7733 29C95.857 29 99.0206 25.4692 99.0206 20.2339C99.0206 14.9654 95.857 11.4456 90.7733 11.4456C85.6896 11.4456 82.5259 14.9654 82.5259 20.2339C82.5259 25.4692 85.6896 29 90.7733 29ZM90.7951 25.3474C88.4496 25.3474 87.2496 23.167 87.2496 20.2007C87.2496 17.2344 88.4496 15.0428 90.7951 15.0428C93.0969 15.0428 94.297 17.2344 94.297 20.2007C94.297 23.167 93.0969 25.3474 90.7951 25.3474Z" fill="white"/>
<path d="M106.075 18.8393C106.086 16.6477 107.374 15.3638 109.25 15.3638C111.115 15.3638 112.239 16.6035 112.228 18.6843V28.668H116.876V17.8431C116.876 13.8807 114.585 11.4456 111.094 11.4456C108.606 11.4456 106.806 12.6853 106.054 14.6665H105.857V11.667H101.428V28.668H106.075V18.8393Z" fill="white"/>
<path d="M127.56 29C131.706 29 134.499 26.9524 135.153 23.7979L130.855 23.5101C130.386 24.8051 129.186 25.4803 127.637 25.4803C125.313 25.4803 123.84 23.9196 123.84 21.385V21.3739H135.251V20.0789C135.251 14.3013 131.804 11.4456 127.375 11.4456C122.444 11.4456 119.247 14.9986 119.247 20.2449C119.247 25.6352 122.4 29 127.56 29ZM123.84 18.4519C123.938 16.5149 125.389 14.9654 127.451 14.9654C129.469 14.9654 130.866 16.4264 130.877 18.4519H123.84Z" fill="white"/>
<path d="M145.306 29C149.452 29 152.244 26.9524 152.899 23.7979L148.601 23.5101C148.132 24.8051 146.932 25.4803 145.382 25.4803C143.059 25.4803 141.586 23.9196 141.586 21.385V21.3739H152.997V20.0789C152.997 14.3013 149.55 11.4456 145.121 11.4456C140.19 11.4456 136.993 14.9986 136.993 20.2449C136.993 25.6352 140.146 29 145.306 29ZM141.586 18.4519C141.684 16.5149 143.135 14.9654 145.197 14.9654C147.215 14.9654 148.612 16.4264 148.622 18.4519H141.586Z" fill="white"/>
<path d="M37.5178 24.6584L31.9296 16.1085C31.0781 14.7952 29.6145 13.9375 27.9646 13.9375C26.3148 13.9375 24.8778 14.7952 23.9996 16.1085L19.0234 23.5327L21.1257 26.749C22.0571 28.1695 23.5739 29.0003 25.2237 29.0003H35.2825C37.4646 29.0003 38.7419 26.5077 37.5178 24.6584ZM23.2013 18.8959C23.2013 18.9227 23.2013 18.9763 23.2013 19.0031C23.2013 18.9763 23.2013 18.9495 23.2013 18.8959ZM27.9646 23.8275C27.938 23.8275 27.9114 23.8275 27.8582 23.8275C27.8848 23.8275 27.938 23.8275 27.9646 23.8275Z" fill="url(#paint0_linear)"/>
<path d="M27.991 10.1312L22.8551 2.25139L22.6156 1.90296C21.7907 0.750462 20.4602 0 18.9434 0C17.4798 0 16.1759 0.696858 15.3509 1.82255L14.9784 2.3854L10.082 9.89002L19.0232 23.5323L23.9994 16.1081C24.8509 14.7948 26.3145 13.9372 27.9644 13.9372C29.6142 13.9372 31.0512 14.7948 31.9294 16.1081L27.991 10.1312Z" fill="#6F58FF"/>
<path d="M19.0235 23.5325L16.9213 26.6684C15.9367 28.1425 14.3135 29.027 12.5838 29.027H2.71121C0.529142 29.027 -0.748168 26.5076 0.475921 24.6582L10.109 9.91699L19.0235 23.5325Z" fill="url(#paint1_linear)"/>
<defs>
<linearGradient id="paint0_linear" x1="24.3266" y1="15.7938" x2="29.6837" y2="26.8626" gradientUnits="userSpaceOnUse">
<stop stop-color="#E2B127"/>
<stop offset="1" stop-color="#FFDC1D"/>
</linearGradient>
<linearGradient id="paint1_linear" x1="-0.00307046" y1="19.4513" x2="19.0257" y2="19.4513" gradientUnits="userSpaceOnUse">
<stop stop-color="#FF4898"/>
<stop offset="1" stop-color="#FF4797"/>
</linearGradient>
</defs>
</svg>
