<svg width="30" height="30" viewBox="0 0 30 30" fill="none" xmlns="http://www.w3.org/2000/svg">
<path d="M24 30.0001C20.7123 29.9921 18.0401 27.346 18 24.0586V21.0001H12V24.0301C11.9834 27.3398 9.28983 30.0111 5.98005 30.0001C2.67026 29.989 -0.00547194 27.2999 8.40346e-06 23.9901C0.00550561 20.6803 2.69015 18.0001 5.99995 18.0001H8.99995V12.0001H5.99995C2.69015 12 0.00550561 9.31979 8.40346e-06 6.01C-0.00547194 2.7002 2.67026 0.0110866 5.98005 3.37588e-05C9.28983 -0.0109512 11.9834 2.66029 12 5.97005V9.00005H18V6.00005C18 2.68633 20.6863 3.37588e-05 24 3.37588e-05C27.3137 3.37588e-05 30 2.68633 30 6.00005C30 9.31376 27.3137 12.0001 24 12.0001H21V18.0001H24C27.3137 18.0001 30 20.6864 30 24.0001C30 27.3138 27.3137 30.0001 24 30.0001ZM21 21.0001V24.0001C21 25.6569 22.3431 27.0001 24 27.0001C25.6568 27.0001 27 25.6569 27 24.0001C27 22.3432 25.6568 21.0001 24 21.0001H21ZM5.99995 21.0001C4.34309 21.0001 2.99994 22.3432 2.99994 24.0001C2.99994 25.6569 4.34309 27.0001 5.99995 27.0001C6.79818 27.0086 7.5662 26.6953 8.13067 26.1308C8.69513 25.5663 9.00847 24.7983 8.99995 24.0001V21.0001H5.99995ZM12 12.0001V18.0001H18V12.0001H12ZM24 3.00004C23.2018 2.99152 22.4337 3.30486 21.8693 3.86933C21.3048 4.43379 20.9915 5.20182 21 6.00005V9.00005H24C24.7982 9.00857 25.5662 8.69523 26.1307 8.13077C26.6952 7.5663 27.0085 6.79828 27 6.00005C27.0085 5.20182 26.6952 4.43379 26.1307 3.86933C25.5662 3.30486 24.7982 2.99152 24 3.00004ZM5.99995 3.00004C5.20172 2.99152 4.43369 3.30486 3.86923 3.86933C3.30476 4.43379 2.99142 5.20182 2.99994 6.00005C2.99142 6.79828 3.30476 7.5663 3.86923 8.13077C4.43369 8.69523 5.20172 9.00857 5.99995 9.00005H8.99995V6.00005C9.00847 5.20182 8.69513 4.43379 8.13067 3.86933C7.5662 3.30486 6.79818 2.99152 5.99995 3.00004Z" fill="#FF5757"/>
</svg>
