<svg width="35" height="27" viewBox="0 0 35 27" fill="none" xmlns="http://www.w3.org/2000/svg">
<path d="M0 26.685H3.558C3.558 22.7549 6.74393 19.569 10.674 19.569C14.604 19.569 17.79 22.7549 17.79 26.685H21.348C21.348 20.7899 16.5691 16.011 10.674 16.011C4.77891 16.011 0 20.7899 0 26.685Z" fill="#2E3A59"/>
<path d="M3.558 7.11599C3.558 3.18594 6.74393 0 10.674 0C14.604 0 17.79 3.18594 17.79 7.11599C17.7851 11.044 14.602 14.2271 10.674 14.232C6.74393 14.232 3.558 11.046 3.558 7.11599ZM7.11996 7.065C7.09211 9.00855 8.62914 10.6148 10.572 10.6724C12.5149 10.7301 14.1445 9.21787 14.232 7.2761V7.11599C14.232 5.15096 12.639 3.558 10.674 3.558C8.73024 3.55996 7.14781 5.12146 7.11996 7.065Z" fill="#2E3A59"/>
<path d="M29.067 19.5679C28.697 19.2388 28.2789 18.8955 27.836 18.5326L27.7524 18.465L27.7425 18.4569C25.6858 16.7789 23.127 14.6911 23.127 12.0962C23.1272 11.235 23.4743 10.4103 24.0899 9.80813C24.7055 9.20596 25.5376 8.87708 26.3985 8.89574C27.4165 8.893 28.3872 9.32466 29.067 10.0823C29.747 9.32485 30.7177 8.89323 31.7355 8.89574C32.5956 8.87901 33.4261 9.20899 34.0402 9.81134C34.6543 10.4137 35.0002 11.2378 35 12.0979C35 14.7037 32.4213 16.8069 30.3479 18.498L30.3426 18.5023L30.2412 18.5859L30.2088 18.6124C29.7992 18.9477 29.4119 19.2647 29.0653 19.5715L29.067 19.5679Z" fill="#2E3A59"/>
</svg>
