<svg width="47" height="47" viewBox="0 0 47 47" fill="none" xmlns="http://www.w3.org/2000/svg">
<path d="M10.2251 23.3086L10.225 23.3086V23.3125C10.225 27.4796 11.9306 31.2732 15.3419 33.9282C16.816 35.2193 17.725 36.8673 17.725 38.6875V42.625C17.725 44.9518 19.2862 46.15 20.6875 46.15H26.3125C27.8953 46.15 29.275 44.7703 29.275 43.1875V38.875C29.275 37.0462 30.1912 35.0277 31.8415 33.7439C35.0689 31.2757 36.775 27.4802 36.775 23.5C36.775 19.8955 35.2576 16.4829 32.7936 14.0189C30.3257 11.5511 26.9115 10.225 23.3125 10.225V10.2249L23.3084 10.2251C16.2927 10.4147 10.4147 16.1024 10.2251 23.3086ZM16.6575 32.1964L16.6576 32.1962L16.6512 32.1915C13.8831 30.1616 12.4007 26.8356 12.4 23.3148C12.5863 17.3941 17.5845 12.4 23.5 12.4C26.4622 12.4 29.236 13.5106 31.2689 15.5436C33.4908 17.7654 34.6 20.5397 34.6 23.5C34.6 26.8308 33.1197 29.9741 30.5323 32.0071L30.5323 32.007L30.53 32.0089C28.4364 33.7219 27.1 36.3879 27.1 38.875V43.1875C27.1 43.4347 27.0183 43.629 26.8861 43.7611C26.754 43.8933 26.5597 43.975 26.3125 43.975H20.6875C20.4857 43.975 20.345 43.9155 20.2423 43.8288C20.137 43.7398 20.0614 43.6134 20.0084 43.4652C19.9012 43.1649 19.9 42.815 19.9 42.625V38.6875C19.9 36.2004 18.7511 33.9094 16.6575 32.1964Z" fill="#FD623D" stroke="#FD623D" stroke-width="0.3"/>
<path d="M18.8125 40.525H28.1875C28.5028 40.525 28.7773 40.4192 28.9733 40.2232C29.1692 40.0273 29.275 39.7528 29.275 39.4375C29.275 39.1222 29.1692 38.8477 28.9733 38.6517C28.7773 38.4558 28.5028 38.35 28.1875 38.35H18.8125C18.4972 38.35 18.2227 38.4558 18.0267 38.6517C17.8308 38.8477 17.725 39.1222 17.725 39.4375C17.725 39.7528 17.8308 40.0273 18.0267 40.2232C18.2227 40.4192 18.4972 40.525 18.8125 40.525Z" fill="#FD623D" stroke="#FD623D" stroke-width="0.3"/>
<path d="M22.4125 5.6875C22.4125 6.00284 22.5183 6.27727 22.7142 6.47325C22.9102 6.66923 23.1847 6.775 23.5 6.775C23.8153 6.775 24.0898 6.66923 24.2857 6.47325C24.4817 6.27727 24.5875 6.00284 24.5875 5.6875V1.9375C24.5875 1.62216 24.4817 1.34773 24.2857 1.15175C24.0898 0.955767 23.8153 0.85 23.5 0.85C23.1847 0.85 22.9102 0.955767 22.7142 1.15175C22.5183 1.34773 22.4125 1.62216 22.4125 1.9375V5.6875Z" fill="#FD623D" stroke="#FD623D" stroke-width="0.3"/>
<path d="M36.625 11.6875L36.6921 11.8217L36.7139 11.8108L36.7311 11.7936L39.3561 9.16857C39.7896 8.73499 39.7896 8.07751 39.3561 7.64393C38.9225 7.21036 38.265 7.21036 37.8314 7.64393L35.2064 10.2689C34.7729 10.7025 34.7729 11.36 35.2064 11.7936C35.3334 11.9206 35.5118 11.9743 35.6628 11.9995C35.8158 12.025 35.9665 12.025 36.0597 12.025H36.0625C36.1303 12.025 36.2048 12.0087 36.2707 11.9899C36.3389 11.9705 36.4085 11.945 36.4698 11.9205C36.5314 11.8959 36.5866 11.8713 36.6263 11.853C36.6463 11.8438 36.6624 11.8361 36.6737 11.8306L36.6869 11.8242L36.6906 11.8224L36.6916 11.8219L36.6919 11.8217L36.692 11.8217L36.6921 11.8217L36.625 11.6875Z" fill="#FD623D" stroke="#FD623D" stroke-width="0.3"/>
<path d="M41.3125 24.5875H45.0625C45.3778 24.5875 45.6523 24.4817 45.8483 24.2857C46.0442 24.0898 46.15 23.8153 46.15 23.5C46.15 23.1847 46.0442 22.9102 45.8483 22.7142C45.6523 22.5183 45.3778 22.4125 45.0625 22.4125H41.3125C40.9972 22.4125 40.7227 22.5183 40.5267 22.7142C40.3308 22.9102 40.225 23.1847 40.225 23.5C40.225 23.8153 40.3308 24.0898 40.5267 24.2857C40.7227 24.4817 40.9972 24.5875 41.3125 24.5875Z" fill="#FD623D" stroke="#FD623D" stroke-width="0.3"/>
<path d="M37.8314 39.5436C37.9584 39.6706 38.1368 39.7243 38.2878 39.7495C38.4408 39.775 38.5915 39.775 38.6847 39.775H38.6875C38.694 39.775 38.7005 39.775 38.707 39.775C38.8776 39.775 39.0338 39.7751 39.1458 39.7471C39.2075 39.7316 39.2754 39.7035 39.327 39.6455C39.3648 39.603 39.3854 39.5539 39.3944 39.5034C39.7892 39.0702 39.7765 38.4393 39.3561 38.0189L36.7311 35.3939C36.2975 34.9604 35.64 34.9604 35.2064 35.3939C34.7729 35.8275 34.7729 36.485 35.2064 36.9186L37.8314 39.5436Z" fill="#FD623D" stroke="#FD623D" stroke-width="0.3"/>
<path d="M7.45643 39.5436C7.58344 39.6706 7.76181 39.7243 7.91284 39.7495C8.06575 39.775 8.21653 39.775 8.30966 39.775H8.3125L8.31892 39.775C8.50773 39.775 8.74956 39.7751 8.98107 39.5436L11.6061 36.9186C12.0396 36.485 12.0396 35.8275 11.6061 35.3939C11.1725 34.9604 10.515 34.9604 10.0814 35.3939L7.45643 38.0189C7.02286 38.4525 7.02286 39.11 7.45643 39.5436Z" fill="#FD623D" stroke="#FD623D" stroke-width="0.3"/>
<path d="M1.9375 24.5875H5.6875C6.00284 24.5875 6.27727 24.4817 6.47325 24.2857C6.66923 24.0898 6.775 23.8153 6.775 23.5C6.775 23.1847 6.66923 22.9102 6.47325 22.7142C6.27727 22.5183 6.00284 22.4125 5.6875 22.4125H1.9375C1.62216 22.4125 1.34773 22.5183 1.15175 22.7142C0.955767 22.9102 0.85 23.1847 0.85 23.5C0.85 23.8153 0.955767 24.0898 1.15175 24.2857C1.34773 24.4817 1.62216 24.5875 1.9375 24.5875Z" fill="#FD623D" stroke="#FD623D" stroke-width="0.3"/>
<path d="M10.0778 11.7898L10.0778 11.7899L10.0814 11.7936C10.2084 11.9206 10.3868 11.9743 10.5378 11.9995C10.6908 12.025 10.8415 12.025 10.9347 12.025H10.9375C11.0802 12.025 11.2064 11.9546 11.3088 11.8778C11.4111 11.8011 11.5111 11.701 11.6018 11.6103L11.6061 11.6061C12.0396 11.1725 12.0396 10.515 11.6061 10.0814L8.98107 7.45643C8.54749 7.02286 7.89001 7.02286 7.45643 7.45643C7.02348 7.88938 7.02286 8.54558 7.45455 8.97918L10.0778 11.7898Z" fill="#FD623D" stroke="#FD623D" stroke-width="0.3"/>
<path d="M29.9125 23.5C29.9125 23.8153 30.0183 24.0898 30.2142 24.2857C30.4102 24.4817 30.6847 24.5875 31 24.5875C31.3153 24.5875 31.5898 24.4817 31.7857 24.2857C31.9817 24.0898 32.0875 23.8153 32.0875 23.5C32.0875 18.7297 28.2703 14.9125 23.5 14.9125C23.1847 14.9125 22.9102 15.0183 22.7142 15.2142C22.5183 15.4102 22.4125 15.6847 22.4125 16C22.4125 16.3153 22.5183 16.5898 22.7142 16.7858C22.9102 16.9817 23.1847 17.0875 23.5 17.0875C26.9797 17.0875 29.9125 20.0203 29.9125 23.5Z" fill="#FD623D" stroke="#FD623D" stroke-width="0.3"/>
</svg>
