<svg width="47" height="41" viewBox="0 0 47 41" fill="none" xmlns="http://www.w3.org/2000/svg">
<path d="M15.2867 25.0449L19.3177 21.6121L15.2867 25.0449ZM15.2867 25.0449L19.3178 28.4778C19.683 28.7888 19.7266 29.3365 19.4161 29.7012L19.3209 29.6202L19.4161 29.7012C19.2442 29.9032 18.9999 30.0068 18.7546 30.0068C18.556 30.0068 18.3558 29.9384 18.1927 29.7995L13.3852 25.706L13.3852 25.7059C13.1915 25.5408 13.0801 25.2996 13.0801 25.0449C13.0801 24.7905 13.192 24.5494 13.3851 24.3844L13.3852 24.3843L18.1926 20.2908L18.1927 20.2907L18.2737 20.3859L15.2867 25.0449Z" fill="#FD623D" stroke="#FD623D" stroke-width="0.25"/>
<path d="M31.7132 25.0449L27.682 28.4778L27.682 28.4779C27.3174 28.7887 27.2732 29.3363 27.5841 29.7011C27.7556 29.9032 28 30.0068 28.2452 30.0068C28.4439 30.0068 28.6441 29.9384 28.8072 29.7995C28.8072 29.7995 28.8072 29.7995 28.8072 29.7995L33.6146 25.706L33.6147 25.7059C33.8084 25.5408 33.9198 25.2996 33.9198 25.0449C33.9198 24.7906 33.8084 24.5494 33.6147 24.3843L33.6146 24.3843L28.8073 20.2908C28.8073 20.2908 28.8073 20.2908 28.8073 20.2908C28.4429 19.9797 27.8946 20.0239 27.5842 20.3886L31.7132 25.0449ZM31.7132 25.0449L27.6821 21.612C27.6821 21.612 27.6821 21.612 27.682 21.612C27.3173 21.3015 27.2733 20.7537 27.5842 20.3886L31.7132 25.0449Z" fill="#FD623D" stroke="#FD623D" stroke-width="0.25"/>
<path d="M21.6188 33.0585L21.6191 33.0586C21.679 33.071 21.7389 33.0774 21.7988 33.0774C22.2004 33.0774 22.5608 32.797 22.647 32.3882L22.647 32.3882L25.6432 18.1627L25.6432 18.1627C25.742 17.6934 25.4417 17.2333 24.9729 17.1345L24.9728 17.1345C24.5036 17.0357 24.0434 17.336 23.9446 17.8048L23.9446 17.8048L20.9485 32.0303C20.9485 32.0303 20.9485 32.0303 20.9485 32.0303C20.8497 32.4991 21.1499 32.9597 21.6188 33.0585Z" fill="#FD623D" stroke="#FD623D" stroke-width="0.25"/>
<path d="M5.98821 40.8275H41.0118C43.8311 40.8275 46.125 38.5341 46.125 35.7143V5.98821C46.125 3.16886 43.8311 0.875 41.0118 0.875H5.98821C3.16886 0.875 0.875 3.16886 0.875 5.98821V35.7143C0.875 38.5341 3.16887 40.8275 5.98821 40.8275ZM2.61085 5.98821C2.61085 4.12614 4.12614 2.61085 5.98821 2.61085H41.0118C42.8739 2.61085 44.3892 4.12614 44.3892 5.98821V35.7143C44.3892 37.5764 42.8739 39.0917 41.0118 39.0917H5.98821C4.12614 39.0917 2.61085 37.5764 2.61085 35.7143V5.98821Z" fill="#FD623D" stroke="#FD623D" stroke-width="0.25"/>
<path d="M1.74292 13.0215H45.2571C45.7365 13.0215 46.125 12.633 46.125 12.1536C46.125 11.6746 45.7366 11.2856 45.2571 11.2856H1.74292C1.26341 11.2856 0.875 11.6746 0.875 12.1536C0.875 12.633 1.26346 13.0215 1.74292 13.0215Z" fill="#FD623D" stroke="#FD623D" stroke-width="0.25"/>
<path d="M11.2168 6.99023C11.2168 8.35524 12.3279 9.46631 13.6929 9.46631C15.0583 9.46631 16.1689 8.35523 16.1689 6.99023C16.1689 5.62481 15.0583 4.51416 13.6929 4.51416C12.3279 4.51416 11.2168 5.6248 11.2168 6.99023ZM12.9526 6.99023C12.9526 6.58213 13.2851 6.25001 13.6929 6.25001C14.101 6.25001 14.4331 6.58209 14.4331 6.99023C14.4331 7.39838 14.101 7.73046 13.6929 7.73046C13.2851 7.73046 12.9526 7.39834 12.9526 6.99023Z" fill="#FD623D" stroke="#FD623D" stroke-width="0.25"/>
<path d="M3.99414 6.96729C3.99414 8.33271 5.10479 9.44336 6.47021 9.44336C7.83564 9.44336 8.94629 8.33271 8.94629 6.96729C8.94629 5.60186 7.83564 4.49121 6.47021 4.49121C5.10479 4.49121 3.99414 5.60186 3.99414 6.96729ZM5.72999 6.96729C5.72999 6.55956 6.06248 6.22706 6.47021 6.22706C6.87832 6.22706 7.21044 6.55952 7.21044 6.96729C7.21044 7.37543 6.87836 7.70751 6.47021 7.70751C6.06245 7.70751 5.72999 7.37539 5.72999 6.96729Z" fill="#FD623D" stroke="#FD623D" stroke-width="0.25"/>
<path d="M18.4414 7.01277C18.4414 8.37818 19.552 9.48884 20.9171 9.48884C22.2825 9.48884 23.3931 8.37819 23.3931 7.01277C23.3931 5.64775 22.2825 4.53711 20.9171 4.53711C19.5521 4.53711 18.4414 5.64776 18.4414 7.01277ZM20.1773 7.01277C20.1773 6.60459 20.5094 6.27254 20.9171 6.27254C21.3252 6.27254 21.6573 6.60462 21.6573 7.01277C21.6573 7.42091 21.3252 7.75299 20.9171 7.75299C20.5094 7.75299 20.1773 7.42095 20.1773 7.01277Z" fill="#FD623D" stroke="#FD623D" stroke-width="0.25"/>
</svg>
