<svg width="46" height="45" viewBox="0 0 46 45" fill="none" xmlns="http://www.w3.org/2000/svg">
<path d="M13.5011 30.0642C13.5011 30.4802 13.5011 30.7581 13.5011 31.036C13.5049 32.558 13.9906 33.0504 15.5038 33.0504C24.3808 33.0523 33.2578 33.0504 42.1348 33.0504C42.3542 33.0504 42.5717 33.0504 42.7911 33.0504C44.3193 33.0504 45.0244 33.5335 45.0038 34.5631C44.9831 35.5834 44.2912 36.0329 42.7404 36.0329C41.4016 36.0329 40.0609 36.0329 38.692 36.0907C39.8415 36.5701 40.8259 37.2248 41.4278 38.329C42.0373 39.4462 42.1779 40.6176 41.801 41.8393C41.2028 43.781 39.2864 45.0904 37.2144 44.9784C35.1648 44.8665 33.4097 43.2736 33.044 41.1921C32.6727 39.0695 33.9047 37.1614 36.4512 36.0945C30.6082 36.0945 24.9246 36.0945 19.0928 36.0945C20.3811 36.6074 21.3955 37.2957 21.9918 38.4651C22.59 39.6384 22.6669 40.8358 22.2037 42.0669C21.4799 43.9936 19.4885 45.2097 17.4596 44.9673C15.4569 44.7285 13.773 43.0535 13.5143 41.0429C13.2424 38.9314 14.4631 37.1091 16.7808 36.0273C16.1301 36.0273 15.4794 36.0441 14.8287 36.0236C12.6123 35.9564 10.4896 34.1696 10.5571 31.9929C10.6753 28.1599 9.50705 24.5805 8.74386 20.9229C7.65252 15.704 6.41867 10.515 5.25607 5.31294C4.88104 3.63239 4.36725 3.19779 2.65523 3.19593C2.21832 3.19593 1.77391 3.2351 1.34449 3.18101C0.573805 3.08215 0.0862642 2.62518 0.00938279 1.84738C-0.0674986 1.06586 0.33191 0.515626 1.06697 0.28061C4.17973 -0.713546 7.28874 1.0155 8.0688 4.17703C8.42509 5.6207 8.71948 7.08116 9.04951 8.53229C9.09639 8.73746 9.17702 8.93331 9.25578 9.17205C13.1617 9.17205 17.0339 9.17205 20.908 9.17205C28.2849 9.17205 35.6617 9.17205 43.0386 9.17205C44.6812 9.17205 45.2363 9.87337 44.8387 11.4625C43.6461 16.2431 42.4535 21.0254 41.2497 25.8041C40.5915 28.4173 38.4501 30.0586 35.7124 30.0586C28.6787 30.0624 21.6468 30.0624 14.6131 30.0624C14.2774 30.0642 13.938 30.0642 13.5011 30.0642ZM13.2067 27.0818C13.6099 27.0818 13.9793 27.0818 14.3468 27.0818C21.3768 27.0799 28.4086 27.0799 35.4386 27.078C37.1637 27.078 38.0207 26.4028 38.4295 24.754C38.9658 22.5885 39.5152 20.4267 40.0552 18.2612C40.5559 16.2561 41.0509 14.251 41.5629 12.1918C30.9626 12.1918 20.473 12.1918 9.88208 12.1918C10.9922 17.1682 12.091 22.0868 13.2067 27.0818ZM19.5016 40.5411C19.5185 39.7447 18.8566 39.049 18.0559 39.0191C17.2608 38.9893 16.5464 39.6402 16.5033 40.4348C16.4583 41.263 17.1596 41.9997 17.9959 42.0034C18.7966 42.0072 19.4848 41.3394 19.5016 40.5411ZM39.0033 40.5094C38.9976 39.7111 38.3226 39.0303 37.5275 39.0191C36.6931 39.0079 35.9805 39.7297 36.0068 40.5579C36.033 41.3469 36.7343 42.0109 37.5313 41.9997C38.3338 41.9885 39.007 41.3058 39.0033 40.5094Z" fill="#FD623D"/>
</svg>
